<svg width="194" height="56" viewBox="0 0 194 56" fill="none" xmlns="http://www.w3.org/2000/svg">
<g clip-path="url(#clip0_1580_2021)">
<path d="M3.26436 12.9717V27.4786H0.633362V12.9717H3.26436Z" fill="white"/>
<path d="M22.644 27.4784H20.013L12.0979 16.6444V27.4784H9.46686V12.9514H12.0979L20.013 23.7654V12.9514H22.644V27.4784Z" fill="white"/>
<path d="M38.5718 13.8588C39.8541 14.4489 40.8479 15.2998 41.5489 16.4037C42.2499 17.5076 42.6004 18.8001 42.6004 20.2773C42.6004 21.7545 42.2499 23.031 41.5489 24.1188C40.8479 25.2066 39.8585 26.0375 38.5718 26.6115C37.2896 27.1896 35.79 27.4786 34.0863 27.4786H28.8509V12.9717H34.0863C35.7944 12.9717 37.2896 13.2687 38.5718 13.8588ZM38.3988 24.1589C39.3971 23.2397 39.8984 21.9472 39.8984 20.2773C39.8984 18.6075 39.3971 17.2788 38.3988 16.3315C37.4005 15.3841 35.9586 14.9105 34.0863 14.9105H31.4775V25.5358H34.0863C35.963 25.5358 37.4005 25.0782 38.3988 24.1589Z" fill="white"/>
<path d="M50.5826 14.8902V19.1492H56.1197V21.092H50.5826V25.5396H56.8119V27.4824H47.9516V12.9514H56.8119V14.8942H50.5826V14.8902Z" fill="white"/>
<path d="M73.4229 19.3782C73.0369 20.0325 72.4246 20.5663 71.5772 20.9758C70.7297 21.3852 69.6472 21.5899 68.325 21.5899H65.4189V27.4746H62.7879V12.9717H68.325C69.554 12.9717 70.5966 13.1644 71.4529 13.5457C72.3048 13.927 72.9437 14.4489 73.3696 15.0991C73.7911 15.7534 74.0041 16.484 74.0041 17.2908C74.0041 18.0294 73.8133 18.7239 73.4273 19.3782H73.4229ZM70.5612 19.0329C71.0536 18.6235 71.2977 18.0415 71.2977 17.2908C71.2977 15.7053 70.3038 14.9105 68.3206 14.9105H65.4145V19.6471H68.3206C69.3189 19.6471 70.0642 19.4424 70.5567 19.0329H70.5612Z" fill="white"/>
<path d="M81.8881 14.8902V19.1492H87.4252V21.092H81.8881V25.5396H88.1173V27.4824H79.2571V12.9514H88.1173V14.8942H81.8881V14.8902Z" fill="white"/>
<path d="M107.266 27.4784H104.635L96.7203 16.6444V27.4784H94.0893V12.9514H96.7203L104.635 23.7654V12.9514H107.266V27.4784Z" fill="white"/>
<path d="M123.199 13.8588C124.481 14.4489 125.475 15.2998 126.176 16.4037C126.877 17.5116 127.228 18.8001 127.228 20.2773C127.228 21.7545 126.877 23.031 126.176 24.1188C125.475 25.2026 124.486 26.0375 123.199 26.6115C121.912 27.1896 120.417 27.4786 118.713 27.4786H113.478V12.9717H118.713C120.422 12.9717 121.917 13.2687 123.199 13.8588ZM123.026 24.1589C124.024 23.2397 124.526 21.9472 124.526 20.2773C124.526 18.6075 124.024 17.2788 123.026 16.3315C122.028 15.3841 120.586 14.9105 118.713 14.9105H116.105V25.5358H118.713C120.59 25.5358 122.028 25.0782 123.026 24.1589Z" fill="white"/>
<path d="M135.204 14.8902V19.1492H140.742V21.092H135.204V25.5396H141.434V27.4824H132.573V12.9514H141.434V14.8942H135.204V14.8902Z" fill="white"/>
<path d="M160.583 27.4784H157.952L150.037 16.6444V27.4784H147.406V12.9514H150.037L157.952 23.7654V12.9514H160.583V27.4784Z" fill="white"/>
<path d="M177.15 12.9717V14.9145H172.882V27.4786H170.251V14.9105H165.96V12.9717H177.15Z" fill="white"/>
<path d="M184.923 27.1124C184.062 26.7712 183.384 26.2895 182.891 25.6633C182.399 25.0371 182.155 24.3066 182.155 23.4716H184.968C185.03 24.0978 185.3 24.6116 185.788 25.017C186.272 25.4225 186.955 25.6232 187.829 25.6232C188.703 25.6232 189.444 25.4265 189.95 25.0291C190.456 24.6317 190.713 24.1219 190.713 23.4957C190.713 23.01 190.553 22.6126 190.238 22.3075C189.923 22.0025 189.533 21.7656 189.063 21.597C188.592 21.4285 187.945 21.2478 187.115 21.0551C186.068 20.8063 185.22 20.5494 184.564 20.2925C183.912 20.0356 183.353 19.6342 182.891 19.0923C182.43 18.5504 182.199 17.8278 182.199 16.9206C182.199 16.0857 182.43 15.3551 182.891 14.7289C183.353 14.1028 184 13.6211 184.83 13.2879C185.66 12.9547 186.622 12.7861 187.714 12.7861C189.267 12.7861 190.54 13.1394 191.534 13.8418C192.528 14.5443 193.074 15.5077 193.184 16.732H190.278C190.234 16.2021 189.954 15.7525 189.449 15.3752C188.943 14.9979 188.273 14.8132 187.443 14.8132C186.689 14.8132 186.072 14.9859 185.598 15.3351C185.123 15.6843 184.883 16.1861 184.883 16.8363C184.883 17.2819 185.034 17.6472 185.331 17.9322C185.633 18.2172 186.01 18.442 186.472 18.6106C186.933 18.7792 187.563 18.9598 188.362 19.1525C189.422 19.4174 190.287 19.6823 190.957 19.9473C191.627 20.2122 192.195 20.6176 192.665 21.1675C193.136 21.7175 193.371 22.452 193.371 23.3713C193.371 24.1099 193.153 24.8043 192.714 25.4586C192.275 26.1129 191.636 26.6387 190.797 27.0361C189.959 27.4335 188.97 27.6302 187.834 27.6302C186.756 27.6302 185.788 27.4616 184.928 27.1204L184.923 27.1124Z" fill="white"/>
<path d="M62.6861 39.5973C63.0411 39.9786 63.2186 40.4242 63.2186 40.934C63.2186 41.3514 63.1076 41.7288 62.8902 42.0579C62.6728 42.3871 62.3445 42.648 61.9141 42.8366C61.4793 43.0253 60.9558 43.1216 60.3391 43.1216H57.4685V34.949H60.2859C61.1865 34.949 61.8653 35.1376 62.3268 35.515C62.7838 35.8923 63.0145 36.378 63.0145 36.9761C63.0145 37.4979 62.8592 37.9154 62.553 38.2405C62.2425 38.5616 61.8476 38.7824 61.3684 38.8988C61.892 38.9831 62.3312 39.2159 62.6861 39.5973ZM58.0497 38.666H60.3125C60.9913 38.666 61.5104 38.5215 61.8742 38.2285C62.238 37.9355 62.4199 37.534 62.4199 37.0243C62.4199 36.5145 62.238 36.1371 61.8787 35.8481C61.5193 35.5631 60.9736 35.4186 60.2459 35.4186H58.0453V38.666H58.0497ZM62.0162 42.1984C62.4333 41.8853 62.6418 41.4518 62.6418 40.9019C62.6418 40.3519 62.4288 39.9264 62.0029 39.6053C61.577 39.2842 60.9957 39.1236 60.2592 39.1236H58.0453V42.6761H60.2992C61.0268 42.6761 61.5991 42.5195 62.0162 42.2064V42.1984Z" fill="white"/>
<path d="M72.1097 34.9524L69.2658 39.8175V43.1251H68.689V39.8175L65.8184 34.9524H66.475L68.9729 39.3277L71.4575 34.9524H72.1142H72.1097Z" fill="white"/>
<path d="M81.4533 42.9287C81.014 42.7441 80.6768 42.4912 80.4328 42.1741C80.1888 41.857 80.0468 41.5037 80.0158 41.1144H80.6192C80.6857 41.5398 80.9076 41.9212 81.2802 42.2543C81.6529 42.5875 82.2208 42.7561 82.984 42.7561C83.4321 42.7561 83.8181 42.6839 84.1464 42.5353C84.4747 42.3868 84.732 42.1861 84.914 41.9292C85.0959 41.6723 85.1846 41.3913 85.1846 41.0782C85.1846 40.6808 85.0781 40.3677 84.8696 40.1349C84.6611 39.9021 84.3993 39.7295 84.0843 39.6131C83.7693 39.4967 83.3478 39.3722 82.8154 39.2398C82.2341 39.0993 81.7639 38.9588 81.4045 38.8223C81.0495 38.6818 80.7478 38.4691 80.5038 38.176C80.2598 37.883 80.1356 37.4856 80.1356 36.9839C80.1356 36.5945 80.2509 36.2413 80.4772 35.9201C80.7035 35.599 81.0273 35.3421 81.4488 35.1575C81.8703 34.9728 82.3539 34.8765 82.9041 34.8765C83.7027 34.8765 84.346 35.0531 84.8341 35.4103C85.3221 35.7676 85.615 36.2051 85.7081 36.727H85.0914C85.0382 36.5182 84.9273 36.3055 84.7498 36.0887C84.5723 35.872 84.3239 35.6913 84.0044 35.5468C83.685 35.4023 83.299 35.3301 82.8553 35.3301C82.2563 35.3301 81.7505 35.4786 81.3379 35.7796C80.9253 36.0767 80.7212 36.4781 80.7212 36.9718C80.7212 37.3692 80.8277 37.6823 81.0407 37.9191C81.2536 38.156 81.5198 38.3326 81.8304 38.453C82.1454 38.5734 82.5669 38.6939 83.0993 38.8183C83.6894 38.9668 84.1597 39.1073 84.5102 39.2438C84.8563 39.3803 85.1535 39.593 85.3976 39.882C85.6416 40.1751 85.7658 40.5684 85.7658 41.0622C85.7658 41.4274 85.6593 41.7727 85.4464 42.0978C85.2334 42.4229 84.9184 42.6879 84.5013 42.8966C84.0843 43.1013 83.5829 43.2057 82.9884 43.2057C82.3939 43.2057 81.897 43.1134 81.4577 42.9247L81.4533 42.9287Z" fill="white"/>
<path d="M90.8947 42.6881C90.2248 42.3349 89.7013 41.8412 89.3241 41.2029C88.947 40.5687 88.7562 39.8502 88.7562 39.0514C88.7562 38.2526 88.9426 37.526 89.3241 36.8918C89.7057 36.2576 90.2248 35.7679 90.8947 35.4146C91.5647 35.0614 92.3145 34.8848 93.1486 34.8848C93.9827 34.8848 94.7325 35.0614 95.3981 35.4146C96.068 35.7679 96.5915 36.2616 96.9687 36.8918C97.3458 37.526 97.5366 38.2446 97.5366 39.0514C97.5366 39.8582 97.3458 40.5687 96.9687 41.2029C96.5915 41.8412 96.068 42.3349 95.3981 42.6881C94.7281 43.0414 93.9783 43.218 93.1486 43.218C92.3189 43.218 91.5647 43.0414 90.8947 42.6881ZM95.0786 42.2988C95.6509 41.9977 96.1079 41.5642 96.4363 41.0062C96.7646 40.4483 96.9332 39.794 96.9332 39.0514C96.9332 38.3088 96.769 37.6424 96.4363 37.0845C96.1079 36.5265 95.6554 36.093 95.0786 35.7919C94.5018 35.4909 93.8585 35.3384 93.1486 35.3384C92.4387 35.3384 91.7954 35.4909 91.2186 35.7919C90.6418 36.093 90.1893 36.5265 89.8565 37.0845C89.5238 37.6424 89.3552 38.3008 89.3552 39.0514C89.3552 39.802 89.5238 40.4483 89.8565 41.0062C90.1893 41.5642 90.6463 41.9937 91.2186 42.2988C91.791 42.5998 92.4343 42.7524 93.1486 42.7524C93.8629 42.7524 94.5018 42.5998 95.0786 42.2988Z" fill="white"/>
<path d="M106.974 36.0362C107.804 36.7587 108.216 37.7623 108.216 39.0508C108.216 40.3393 107.804 41.3388 106.974 42.0533C106.144 42.7678 104.968 43.1251 103.442 43.1251H100.909V34.9524H103.442C104.968 34.9524 106.144 35.3137 106.974 36.0362ZM106.552 41.7201C107.267 41.0819 107.622 40.1908 107.622 39.0468C107.622 37.9027 107.267 37.0036 106.552 36.3573C105.842 35.7151 104.804 35.3899 103.438 35.3899H101.481V42.6755H103.438C104.8 42.6755 105.838 42.3544 106.552 41.7161V41.7201Z" fill="white"/>
<path d="M112.165 35.3939V38.8059H115.767V39.2475H112.165V42.6835H116.153V43.1251H111.588V34.9524H116.153V35.3939H112.165Z" fill="white"/>
<path d="M122.276 39.0387L124.991 43.1251H124.334L121.903 39.4602L119.574 43.1251H118.931L121.606 39.0026L118.917 34.9524H119.574L121.979 38.5851L124.348 34.9524H125.004L122.276 39.0387Z" fill="white"/>
<path d="M129.907 42.6881C129.237 42.3349 128.714 41.8412 128.336 41.2029C127.959 40.5687 127.769 39.8502 127.769 39.0514C127.769 38.2526 127.955 37.526 128.336 36.8918C128.714 36.2576 129.237 35.7679 129.907 35.4146C130.577 35.0614 131.327 34.8848 132.161 34.8848C132.995 34.8848 133.745 35.0614 134.41 35.4146C135.08 35.7679 135.604 36.2616 135.981 36.8918C136.358 37.526 136.549 38.2446 136.549 39.0514C136.549 39.8582 136.358 40.5687 135.981 41.2029C135.604 41.8412 135.08 42.3349 134.41 42.6881C133.74 43.0414 132.991 43.218 132.161 43.218C131.331 43.218 130.577 43.0414 129.907 42.6881ZM134.086 42.2988C134.659 41.9977 135.111 41.5642 135.444 41.0062C135.772 40.4483 135.941 39.794 135.941 39.0514C135.941 38.3088 135.777 37.6424 135.444 37.0845C135.116 36.5265 134.663 36.093 134.086 35.7919C133.51 35.4909 132.866 35.3384 132.156 35.3384C131.447 35.3384 130.799 35.4909 130.226 35.7919C129.65 36.093 129.197 36.5265 128.864 37.0845C128.532 37.6424 128.363 38.3008 128.363 39.0514C128.363 39.802 128.532 40.4483 128.864 41.0062C129.197 41.5642 129.654 41.9937 130.226 42.2988C130.799 42.5998 131.447 42.7524 132.156 42.7524C132.866 42.7524 133.51 42.5998 134.086 42.2988Z" fill="white"/>
</g>
<defs>
<clipPath id="clip0_1580_2021">
<rect width="193" height="56" fill="white" transform="translate(0.5)"/>
</clipPath>
</defs>
</svg>
